# xmcd
#
# Track frame offsets:
# 150
# 10978
# 32928
# 47872
# 61662
#
# Disc length: 1012 seconds
#
# Revision: 1
# Processed by: cddbd v1.5.1PL0 Copyright (c) Steve Scherf et al.
# Submitted via: Easy CD Ripper 1.45
#
DISCID=3a03f205
DTITLE=Robbie Williams (Playback) - Swing when you´re winning (Playback)
DYEAR=2002
DGENRE=Swing
TTITLE0=Ain´t that a kick (Playback)
TTITLE1=Robbie Williams - It was a very good y.(Playback
TTITLE2=Robbie Williams - Mack the knife (Playback)
TTITLE3=Robbie Williams - Things (Playback)
TTITLE4=Robbie Williams - Somethin' stupid (Playback)
EXTD=Playback/Karaoke
EXTT0=
EXTT1=
EXTT2=
EXTT3=
EXTT4=
PLAYORDER=
